<svg width="20" height="20" viewBox="0 0 20 20" fill="none" xmlns="http://www.w3.org/2000/svg">
<path d="M14.167 4.99935H18.3337V6.66602H16.667V17.4993C16.667 17.7204 16.5792 17.9323 16.4229 18.0886C16.2666 18.2449 16.0547 18.3327 15.8337 18.3327H4.16699C3.94598 18.3327 3.73402 18.2449 3.57774 18.0886C3.42146 17.9323 3.33366 17.7204 3.33366 17.4993V6.66602H1.66699V4.99935H5.83366V2.49935C5.83366 2.27834 5.92146 2.06637 6.07774 1.91009C6.23402 1.75381 6.44598 1.66602 6.66699 1.66602H13.3337C13.5547 1.66602 13.7666 1.75381 13.9229 1.91009C14.0792 2.06637 14.167 2.27834 14.167 2.49935V4.99935ZM15.0003 6.66602H5.00033V16.666H15.0003V6.66602ZM7.50033 9.16602H9.16699V14.166H7.50033V9.16602ZM10.8337 9.16602H12.5003V14.166H10.8337V9.16602ZM7.50033 3.33268V4.99935H12.5003V3.33268H7.50033Z" fill="#91969E"/>
</svg>
