<svg width="135" height="135" viewBox="0 0 135 135" fill="none" xmlns="http://www.w3.org/2000/svg">
<rect width="135" height="135" fill="#F3F3F3"/>
<path d="M86.4004 78.2998C86.4004 79.791 85.1916 80.9998 83.7004 80.9998H51.3004C49.8092 80.9998 48.6004 79.791 48.6004 78.2998V62.0998C48.6004 60.6086 49.8092 59.3998 51.3004 59.3998H54.4636C56.6119 59.3998 58.6722 58.5464 60.1912 57.0274L62.428 54.7906C62.9343 54.2843 63.6211 53.9998 64.3371 53.9998H70.6636C71.3797 53.9998 72.0665 54.2843 72.5728 54.7906L74.8096 57.0274C76.3286 58.5464 78.3889 59.3998 80.5371 59.3998H83.7004C85.1916 59.3998 86.4004 60.6086 86.4004 62.0998V78.2998ZM51.3004 56.6998C48.3181 56.6998 45.9004 59.1175 45.9004 62.0998V78.2998C45.9004 81.2821 48.3181 83.6998 51.3004 83.6998H83.7004C86.6827 83.6998 89.1004 81.2821 89.1004 78.2998V62.0998C89.1004 59.1175 86.6827 56.6998 83.7004 56.6998H80.5371C79.105 56.6998 77.7315 56.1309 76.7188 55.1182L74.482 52.8814C73.4693 51.8687 72.0958 51.2998 70.6636 51.2998H64.3371C62.905 51.2998 61.5315 51.8687 60.5188 52.8814L58.282 55.1182C57.2693 56.1309 55.8958 56.6998 54.4636 56.6998H51.3004Z" fill="#C4C4C4"/>
<path d="M67.5004 75.5998C63.7725 75.5998 60.7504 72.5777 60.7504 68.8498C60.7504 65.1219 63.7725 62.0998 67.5004 62.0998C71.2283 62.0998 74.2504 65.1219 74.2504 68.8498C74.2504 72.5777 71.2283 75.5998 67.5004 75.5998ZM67.5004 78.2998C72.7195 78.2998 76.9504 74.0689 76.9504 68.8498C76.9504 63.6307 72.7195 59.3998 67.5004 59.3998C62.2813 59.3998 58.0504 63.6307 58.0504 68.8498C58.0504 74.0689 62.2813 78.2998 67.5004 78.2998Z" fill="#C4C4C4"/>
<path d="M54.0004 63.4498C54.0004 64.1954 53.396 64.7998 52.6504 64.7998C51.9048 64.7998 51.3004 64.1954 51.3004 63.4498C51.3004 62.7042 51.9048 62.0998 52.6504 62.0998C53.396 62.0998 54.0004 62.7042 54.0004 63.4498Z" fill="#C4C4C4"/>
</svg>
