<svg width="60" height="60" viewBox="0 0 60 60" fill="none" xmlns="http://www.w3.org/2000/svg">
<path d="M60 30.0011C60 45.1529 48.7685 57.6793 34.1779 59.712C32.8136 59.9012 31.4179 60 30.0011 60C28.3656 60 26.7596 59.8697 25.1957 59.6174C10.9099 57.3177 0 44.9322 0 30.0011C0 13.4324 13.4324 0 29.999 0C46.5655 0 60 13.4324 60 30.0011Z" fill="#1877F2"/>
<path d="M34.7567 24.3652V30.8505H42.9979L41.6929 39.5866H34.7567V59.7142C33.366 59.902 31.9432 60 30.4989 60C28.8318 60 27.1947 59.8707 25.6005 59.6203V39.5866H18V30.8505H25.6005V22.9155C25.6005 17.9926 29.6997 14 34.7588 14V14.0042C34.7738 14.0042 34.7867 14 34.8017 14H43V21.5554H37.643C36.0509 21.5554 34.7588 22.8133 34.7588 24.3631L34.7567 24.3652Z" fill="white"/>
</svg>
