<svg width="60" height="60" viewBox="0 0 60 60" fill="none" xmlns="http://www.w3.org/2000/svg">
<path d="M30.0683 0H29.9317C13.4009 0 0 13.4009 0 29.9317V30.0683C0 46.5991 13.4009 60 29.9317 60H30.0683C46.5991 60 60 46.5991 60 30.0683V29.9317C60 13.4009 46.5991 0 30.0683 0Z" fill="url(#paint0_linear_2_1845)"/>
<path d="M38.7406 12H20.2594C15.1537 12 11 16.2209 11 21.4093V38.5907C11 43.7791 15.1537 48 20.2594 48H38.7406C43.8463 48 48 43.7791 48 38.5907V21.4093C48 16.2209 43.8463 12 38.7406 12ZM14.2664 21.4093C14.2664 18.0517 16.9553 15.3193 20.2594 15.3193H38.7406C42.0447 15.3193 44.7336 18.0517 44.7336 21.4093V38.5907C44.7336 41.9483 42.0447 44.6807 38.7406 44.6807H20.2594C16.9553 44.6807 14.2664 41.9483 14.2664 38.5907V21.4093Z" fill="white"/>
<path d="M29.5 39C34.1857 39 38 34.9636 38 30C38 25.0364 34.1878 21 29.5 21C24.8122 21 21 25.0364 21 30C21 34.9636 24.8122 39 29.5 39ZM29.5 24.4155C32.4097 24.4155 34.7764 26.9213 34.7764 30.0022C34.7764 33.0831 32.4097 35.5889 29.5 35.5889C26.5903 35.5889 24.2236 33.0831 24.2236 30.0022C24.2236 26.9213 26.5903 24.4155 29.5 24.4155Z" fill="white"/>
<path d="M39.5 23C40.8774 23 42 21.8796 42 20.5C42 19.1204 40.8796 18 39.5 18C38.1204 18 37 19.1204 37 20.5C37 21.8796 38.1204 23 39.5 23Z" fill="white"/>
<defs>
<linearGradient id="paint0_linear_2_1845" x1="8.76572" y1="51.2343" x2="51.2343" y2="8.76783" gradientUnits="userSpaceOnUse">
<stop stop-color="#FAAD4F"/>
<stop offset="0.35" stop-color="#DD2A7B"/>
<stop offset="0.62" stop-color="#9537B0"/>
<stop offset="1" stop-color="#515BD4"/>
</linearGradient>
</defs>
</svg>
