<svg width="60" height="60" viewBox="0 0 60 60" fill="none" xmlns="http://www.w3.org/2000/svg">
<path d="M30.0683 0H29.9317C13.4009 0 0 13.4009 0 29.9317V30.0683C0 46.5991 13.4009 60 29.9317 60H30.0683C46.5991 60 60 46.5991 60 30.0683V29.9317C60 13.4009 46.5991 0 30.0683 0Z" fill="#00B0F2"/>
<path d="M10.9721 28.6753C11.057 28.6337 11.1421 28.5941 11.2249 28.5567C12.6651 27.9032 14.1245 27.2913 15.5817 26.6794C15.6603 26.6794 15.792 26.5899 15.8663 26.5608C15.9789 26.5129 16.0915 26.4671 16.2041 26.4192L16.852 26.1466C17.2854 25.9655 17.7166 25.7845 18.1499 25.6034C19.0145 25.2413 19.879 24.8791 20.7436 24.5149C22.4727 23.7906 24.204 23.0643 25.9332 22.34C27.6623 21.6157 29.3935 20.8894 31.1227 20.1651C32.8518 19.4408 34.5831 18.7145 36.3122 17.9902C38.0413 17.2659 39.7726 16.5396 41.5018 15.8153C41.8863 15.653 42.3026 15.4116 42.7147 15.3408C43.061 15.2804 43.3987 15.1639 43.7471 15.0994C44.4077 14.9766 45.1363 14.9266 45.7693 15.1951C45.9881 15.2888 46.1899 15.4199 46.3578 15.5843C47.1607 16.3627 47.0481 17.6406 46.8782 18.7353C45.695 26.3651 44.5118 33.9971 43.3265 41.6269C43.165 42.6738 42.9441 43.8226 42.1008 44.4844C41.387 45.0443 40.3716 45.1067 39.4901 44.8695C38.6085 44.6301 37.831 44.1285 37.0684 43.6353C33.9054 41.5832 30.7403 39.5311 27.5773 37.479C26.8253 36.992 25.9884 36.3551 25.9969 35.4706C26.0012 34.9378 26.3261 34.4633 26.6575 34.0408C29.4063 30.5276 33.3723 28.1134 36.3228 24.7626C36.7392 24.2901 37.0663 23.4368 36.4949 23.1642C36.155 23.0018 35.7641 23.2225 35.454 23.4327C31.5539 26.0863 27.6559 28.7419 23.7558 31.3955C22.4834 32.2613 21.1494 33.1521 19.6157 33.3644C18.2434 33.5558 16.8627 33.1812 15.535 32.7983C14.4219 32.4777 13.3109 32.1489 12.2041 31.8097C11.6157 31.6307 11.0082 31.4371 10.5536 31.0313C10.099 30.6254 9.83777 29.9428 10.1118 29.4017C10.2839 29.0624 10.6174 28.8481 10.9679 28.6732L10.9721 28.6753Z" fill="#FEFFFC"/>
</svg>
