<svg width="60" height="60" viewBox="0 0 60 60" fill="none" xmlns="http://www.w3.org/2000/svg">
<path d="M30.0683 0H29.9317C13.4009 0 0 13.4009 0 29.9317V30.0683C0 46.5991 13.4009 60 29.9317 60H30.0683C46.5991 60 60 46.5991 60 30.0683V29.9317C60 13.4009 46.5991 0 30.0683 0Z" fill="black"/>
<path d="M45 23.7483V29.2637C44.0265 29.1696 42.7616 28.9506 41.3623 28.4431C39.5352 27.78 38.1752 26.8734 37.2843 26.1714V37.319L37.2616 37.2842C37.2761 37.5052 37.2843 37.7304 37.2843 37.9575C37.2843 43.4935 32.7351 48 27.1422 48C21.5492 48 17 43.4935 17 37.9575C17 32.4216 21.5492 27.913 27.1422 27.913C27.6899 27.913 28.2273 27.956 28.7523 28.0399V33.4756C28.248 33.2975 27.7064 33.2013 27.1422 33.2013C24.4945 33.2013 22.3387 35.3338 22.3387 37.9575C22.3387 40.5812 24.4945 42.7137 27.1422 42.7137C29.7898 42.7137 31.9456 40.5792 31.9456 37.9575C31.9456 37.8593 31.9435 37.7611 31.9373 37.6628V16H37.5034C37.5241 16.4666 37.5427 16.9373 37.5634 17.4039C37.6006 18.3228 37.9313 19.2049 38.5079 19.9273C39.1838 20.7767 40.1821 21.7631 41.5834 22.551C42.8959 23.2878 44.1278 23.603 45 23.7524V23.7483Z" fill="#FF004F"/>
<path d="M43 18.7514V24.2661C42.0265 24.172 40.7616 23.9531 39.3623 23.4456C37.5352 22.7826 36.1752 21.8761 35.2843 21.1742V32.3204L35.2616 32.2856C35.2761 32.5066 35.2843 32.7317 35.2843 32.9588C35.2843 38.4941 30.7351 43 25.1422 43C19.5492 43 15 38.4941 15 32.9588C15 27.4236 19.5492 22.9156 25.1422 22.9156C25.6899 22.9156 26.2273 22.9586 26.7523 23.0425V28.4774C26.248 28.2994 25.7064 28.2032 25.1422 28.2032C22.4945 28.2032 20.3387 30.3355 20.3387 32.9588C20.3387 35.5822 22.4945 37.7144 25.1422 37.7144C27.7898 37.7144 29.9456 35.5801 29.9456 32.9588C29.9456 32.8606 29.9435 32.7624 29.9373 32.6642V11H35.5034C35.5241 11.4666 35.5427 11.9372 35.5634 12.4038C35.6006 13.3225 35.9313 14.2045 36.5079 14.9268C37.1838 15.7761 38.1821 16.7624 39.5835 17.5502C40.8959 18.2848 42.1278 18.602 43 18.7514Z" fill="#00F7EF"/>
<path d="M44 20.7483V26.2638C43.0265 26.1696 41.7616 25.9506 40.3623 25.4431C38.5352 24.78 37.1752 23.8734 36.2843 23.1714V34.319L36.2616 34.2842C36.2761 34.5052 36.2843 34.7304 36.2843 34.9575C36.2843 40.4935 31.7351 45 26.1422 45C20.5492 45 16 40.4935 16 34.9575C16 29.4216 20.5492 24.913 26.1422 24.913C26.6899 24.913 27.2273 24.956 27.7523 25.0399V30.4756C27.248 30.2975 26.7064 30.2013 26.1422 30.2013C23.4945 30.2013 21.3387 32.3338 21.3387 34.9575C21.3387 37.5812 23.4945 39.7137 26.1422 39.7137C28.7898 39.7137 30.9456 37.5792 30.9456 34.9575C30.9456 34.8593 30.9435 34.7611 30.9373 34.6628V13H36.5034C36.5241 13.4666 36.5427 13.9373 36.5634 14.4039C36.6006 15.3228 36.9313 16.2049 37.5079 16.9273C38.1838 17.7767 39.1821 18.7631 40.5834 19.551C41.8959 20.2858 43.1278 20.603 44 20.7524V20.7483Z" fill="white"/>
</svg>
