<svg width="60" height="60" viewBox="0 0 60 60" fill="none" xmlns="http://www.w3.org/2000/svg">
<path d="M30.0683 0H29.9317C13.4009 0 0 13.4009 0 29.9317V30.0683C0 46.5991 13.4009 60 29.9317 60H30.0683C46.5991 60 60 46.5991 60 30.0683V29.9317C60 13.4009 46.5991 0 30.0683 0Z" fill="#00E510"/>
<path d="M34.5631 39C27.0856 39 21.002 32.5564 21 24.639C21.002 22.632 22.5455 21 24.4369 21C24.6313 21 24.8237 21.0173 25.0079 21.052C25.4132 21.1235 25.7981 21.2688 26.1522 21.4877C26.2034 21.5202 26.2382 21.5722 26.2464 21.6329L27.0365 26.9061C27.0467 26.9689 27.0283 27.0296 26.9894 27.0751C26.5534 27.5866 25.9966 27.9551 25.3764 28.1393L25.0776 28.2282L25.1901 28.5338C26.2095 31.282 28.2851 33.4775 30.8827 34.5612L31.1713 34.6826L31.2553 34.3662C31.4292 33.7095 31.7772 33.1199 32.2603 32.6583C32.2951 32.6236 32.3422 32.6063 32.3893 32.6063C32.3995 32.6063 32.4098 32.6063 32.422 32.6084L37.4023 33.445C37.4616 33.4559 37.5108 33.4905 37.5415 33.5447C37.7462 33.9197 37.8833 34.3293 37.9529 34.7585C37.9857 34.9492 38 35.1508 38 35.361C38 37.3658 36.4586 38.9978 34.5631 39Z" fill="#FDFDFD"/>
<path d="M48.9266 28.3054C48.5134 23.6019 46.3739 19.2385 42.9024 16.0205C39.41 12.7834 34.8792 11 30.1408 11C19.7411 11 11.2795 19.5238 11.2795 30C11.2795 33.516 12.2423 36.9412 14.0651 39.9247L10 48.9894L23.0154 47.5928C25.2787 48.5267 27.6741 49 30.1387 49C30.7869 49 31.4518 48.9662 32.1188 48.8965C32.7061 48.8331 33.2998 48.7401 33.8829 48.6218C42.592 46.849 48.9497 39.0626 49 30.1014V30C49 29.4295 48.9748 28.859 48.9245 28.3054H48.9266ZM23.5167 43.614L16.3158 44.3873L18.4658 39.5887L18.0358 39.0077C18.0043 38.9654 17.9729 38.9232 17.9372 38.8746C16.0704 36.2777 15.0845 33.2096 15.0845 30.0021C15.0845 21.6389 21.8386 14.8351 30.1408 14.8351C37.9186 14.8351 44.5112 20.948 45.1468 28.7512C45.1803 29.1696 45.1992 29.5901 45.1992 30.0042C45.1992 30.1226 45.1971 30.2388 45.195 30.3634C45.0356 37.3595 40.1839 43.3013 33.3962 44.8142C32.8781 44.9304 32.3474 45.0191 31.8189 45.0762C31.2693 45.1396 30.7051 45.1713 30.145 45.1713C28.1502 45.1713 26.2121 44.7825 24.3809 44.0133C24.1774 43.9309 23.9782 43.8422 23.7915 43.7513L23.5188 43.6182L23.5167 43.614Z" fill="#FDFDFD"/>
</svg>
