<svg width="32" height="32" viewBox="0 0 32 32" fill="none" xmlns="http://www.w3.org/2000/svg">
<path d="M25.3807 8.59133C24.8676 8.08683 24.2583 7.68663 23.5878 7.41358C22.9172 7.14054 22.1985 7 21.4727 7C20.7468 7 20.0281 7.14054 19.3576 7.41358C18.687 7.68663 18.0778 8.08683 17.5646 8.59133L16.4997 9.63785L15.4348 8.59133C14.3983 7.57276 12.9926 7.00053 11.5268 7.00053C10.061 7.00053 8.65523 7.57276 7.61876 8.59133C6.58229 9.6099 6 10.9914 6 12.4319C6 13.8723 6.58229 15.2538 7.61876 16.2724L8.68367 17.3189L16.4997 25L24.3158 17.3189L25.3807 16.2724C25.8941 15.7681 26.3013 15.1694 26.5791 14.5105C26.857 13.8515 27 13.1452 27 12.4319C27 11.7186 26.857 11.0123 26.5791 10.3533C26.3013 9.69431 25.8941 9.09559 25.3807 8.59133Z" stroke="#282828" stroke-width="1.5" stroke-linecap="round" stroke-linejoin="round"/>
</svg>
